<mxfile host="app.diagrams.net" modified="2020-11-25T15:02:19.526Z" agent="5.0 (Windows NT 10.0; Win64; x64) AppleWebKit/537.36 (KHTML, like Gecko) Chrome/87.0.4280.66 Safari/537.36" etag="zQFk_ySAM9dj-pElZGpK" version="13.10.2" type="gitlab">
  <diagram id="Z05PBZVZRxb1dUARdPfq" name="Page-1">
    <mxGraphModel dx="1332" dy="782" grid="1" gridSize="10" guides="1" tooltips="1" connect="1" arrows="1" fold="1" page="1" pageScale="1" pageWidth="1169" pageHeight="827" math="0" shadow="0">
      <root>
        <mxCell id="0" />
        <mxCell id="1" parent="0" />
        <mxCell id="_DrJZsbk46onkXdGhjSs-1" value="Base de données" style="shape=folder;align=center;verticalAlign=middle;fontStyle=0;tabWidth=135;tabHeight=30;tabPosition=left;html=1;boundedLbl=1;labelInHeader=1;rounded=1;absoluteArcSize=1;arcSize=10;" vertex="1" parent="1">
          <mxGeometry x="775" y="20" width="361" height="772" as="geometry" />
        </mxCell>
        <mxCell id="_DrJZsbk46onkXdGhjSs-2" value="Système" style="shape=folder;align=center;verticalAlign=middle;fontStyle=0;tabWidth=100;tabHeight=30;tabPosition=left;html=1;boundedLbl=1;labelInHeader=1;rounded=1;absoluteArcSize=1;arcSize=10;" vertex="1" parent="1">
          <mxGeometry x="560" y="20" width="215" height="772" as="geometry" />
        </mxCell>
        <mxCell id="_DrJZsbk46onkXdGhjSs-3" value="IHM" style="shape=folder;align=center;verticalAlign=middle;fontStyle=0;tabWidth=100;tabHeight=30;tabPosition=left;html=1;boundedLbl=1;labelInHeader=1;rounded=1;absoluteArcSize=1;arcSize=10;" vertex="1" parent="1">
          <mxGeometry x="34" y="20" width="526" height="772" as="geometry" />
        </mxCell>
        <mxCell id="_DrJZsbk46onkXdGhjSs-4" style="edgeStyle=orthogonalEdgeStyle;rounded=0;orthogonalLoop=1;jettySize=auto;html=1;exitX=0.5;exitY=1;exitDx=0;exitDy=0;" edge="1" parent="1" source="_DrJZsbk46onkXdGhjSs-5" target="_DrJZsbk46onkXdGhjSs-7">
          <mxGeometry relative="1" as="geometry" />
        </mxCell>
        <mxCell id="_DrJZsbk46onkXdGhjSs-5" value="" style="ellipse;fillColor=#000000;strokeColor=none;" vertex="1" parent="1">
          <mxGeometry x="331" y="71" width="30" height="30" as="geometry" />
        </mxCell>
        <mxCell id="_DrJZsbk46onkXdGhjSs-6" style="edgeStyle=orthogonalEdgeStyle;rounded=0;orthogonalLoop=1;jettySize=auto;html=1;exitX=0.5;exitY=1;exitDx=0;exitDy=0;entryX=0.5;entryY=0;entryDx=0;entryDy=0;" edge="1" parent="1" source="_DrJZsbk46onkXdGhjSs-7" target="_DrJZsbk46onkXdGhjSs-11">
          <mxGeometry relative="1" as="geometry" />
        </mxCell>
        <mxCell id="_DrJZsbk46onkXdGhjSs-7" value="Menu Administrateur" style="html=1;align=center;verticalAlign=top;rounded=1;absoluteArcSize=1;arcSize=10;dashed=0;" vertex="1" parent="1">
          <mxGeometry x="276" y="141" width="140" height="40" as="geometry" />
        </mxCell>
        <mxCell id="_DrJZsbk46onkXdGhjSs-8" style="edgeStyle=orthogonalEdgeStyle;rounded=0;orthogonalLoop=1;jettySize=auto;html=1;exitX=0.5;exitY=1;exitDx=0;exitDy=0;entryX=0.5;entryY=0;entryDx=0;entryDy=0;" edge="1" parent="1" source="_DrJZsbk46onkXdGhjSs-9" target="_DrJZsbk46onkXdGhjSs-15">
          <mxGeometry relative="1" as="geometry" />
        </mxCell>
        <mxCell id="_DrJZsbk46onkXdGhjSs-9" value="Modification de la BDD" style="html=1;align=center;verticalAlign=top;rounded=1;absoluteArcSize=1;arcSize=10;dashed=0;" vertex="1" parent="1">
          <mxGeometry x="276" y="267" width="140" height="40" as="geometry" />
        </mxCell>
        <mxCell id="_DrJZsbk46onkXdGhjSs-10" style="edgeStyle=orthogonalEdgeStyle;rounded=0;orthogonalLoop=1;jettySize=auto;html=1;exitX=0.5;exitY=1;exitDx=0;exitDy=0;" edge="1" parent="1" source="_DrJZsbk46onkXdGhjSs-11" target="_DrJZsbk46onkXdGhjSs-9">
          <mxGeometry relative="1" as="geometry" />
        </mxCell>
        <mxCell id="_DrJZsbk46onkXdGhjSs-11" value="" style="rhombus;" vertex="1" parent="1">
          <mxGeometry x="331" y="211" width="30" height="30" as="geometry" />
        </mxCell>
        <mxCell id="_DrJZsbk46onkXdGhjSs-12" style="edgeStyle=orthogonalEdgeStyle;rounded=0;orthogonalLoop=1;jettySize=auto;html=1;exitX=1;exitY=0.5;exitDx=0;exitDy=0;entryX=0.5;entryY=0;entryDx=0;entryDy=0;" edge="1" parent="1" source="_DrJZsbk46onkXdGhjSs-15" target="_DrJZsbk46onkXdGhjSs-17">
          <mxGeometry relative="1" as="geometry" />
        </mxCell>
        <mxCell id="_DrJZsbk46onkXdGhjSs-13" style="edgeStyle=orthogonalEdgeStyle;rounded=0;orthogonalLoop=1;jettySize=auto;html=1;exitX=0;exitY=0.5;exitDx=0;exitDy=0;entryX=0.5;entryY=0;entryDx=0;entryDy=0;" edge="1" parent="1" source="_DrJZsbk46onkXdGhjSs-15" target="_DrJZsbk46onkXdGhjSs-18">
          <mxGeometry relative="1" as="geometry" />
        </mxCell>
        <mxCell id="_DrJZsbk46onkXdGhjSs-14" style="edgeStyle=orthogonalEdgeStyle;rounded=0;orthogonalLoop=1;jettySize=auto;html=1;exitX=0;exitY=0;exitDx=0;exitDy=0;entryX=0.5;entryY=1;entryDx=0;entryDy=0;" edge="1" parent="1" source="_DrJZsbk46onkXdGhjSs-15" target="_DrJZsbk46onkXdGhjSs-37">
          <mxGeometry relative="1" as="geometry">
            <Array as="points">
              <mxPoint x="261" y="348" />
              <mxPoint x="121" y="348" />
            </Array>
          </mxGeometry>
        </mxCell>
        <mxCell id="_DrJZsbk46onkXdGhjSs-47" style="edgeStyle=orthogonalEdgeStyle;rounded=0;orthogonalLoop=1;jettySize=auto;html=1;exitX=0;exitY=1;exitDx=0;exitDy=0;entryX=0.5;entryY=0;entryDx=0;entryDy=0;" edge="1" parent="1" source="_DrJZsbk46onkXdGhjSs-15" target="_DrJZsbk46onkXdGhjSs-46">
          <mxGeometry relative="1" as="geometry" />
        </mxCell>
        <mxCell id="_DrJZsbk46onkXdGhjSs-49" style="edgeStyle=orthogonalEdgeStyle;rounded=0;orthogonalLoop=1;jettySize=auto;html=1;exitX=1;exitY=1;exitDx=0;exitDy=0;entryX=1;entryY=0.5;entryDx=0;entryDy=0;" edge="1" parent="1" source="_DrJZsbk46onkXdGhjSs-15" target="_DrJZsbk46onkXdGhjSs-48">
          <mxGeometry relative="1" as="geometry">
            <Array as="points">
              <mxPoint x="380" y="364" />
              <mxPoint x="380" y="510" />
            </Array>
          </mxGeometry>
        </mxCell>
        <mxCell id="_DrJZsbk46onkXdGhjSs-15" value="" style="rhombus;" vertex="1" parent="1">
          <mxGeometry x="331" y="341" width="30" height="30" as="geometry" />
        </mxCell>
        <mxCell id="_DrJZsbk46onkXdGhjSs-55" style="edgeStyle=orthogonalEdgeStyle;rounded=0;orthogonalLoop=1;jettySize=auto;html=1;exitX=1;exitY=0.5;exitDx=0;exitDy=0;entryX=0;entryY=0.5;entryDx=0;entryDy=0;" edge="1" parent="1" source="_DrJZsbk46onkXdGhjSs-17" target="_DrJZsbk46onkXdGhjSs-20">
          <mxGeometry relative="1" as="geometry">
            <Array as="points">
              <mxPoint x="580" y="431" />
              <mxPoint x="580" y="391" />
            </Array>
          </mxGeometry>
        </mxCell>
        <mxCell id="_DrJZsbk46onkXdGhjSs-17" value="Visualisation des&amp;nbsp;&lt;br&gt;utilisateurs" style="html=1;align=center;verticalAlign=top;rounded=1;absoluteArcSize=1;arcSize=10;dashed=0;" vertex="1" parent="1">
          <mxGeometry x="391" y="411" width="140" height="40" as="geometry" />
        </mxCell>
        <mxCell id="_DrJZsbk46onkXdGhjSs-18" value="Visualisation des Jeux" style="html=1;align=center;verticalAlign=top;rounded=1;absoluteArcSize=1;arcSize=10;dashed=0;" vertex="1" parent="1">
          <mxGeometry x="80" y="411" width="139" height="40" as="geometry" />
        </mxCell>
        <mxCell id="_DrJZsbk46onkXdGhjSs-53" style="edgeStyle=orthogonalEdgeStyle;rounded=0;orthogonalLoop=1;jettySize=auto;html=1;exitX=0.5;exitY=1;exitDx=0;exitDy=0;entryX=0.5;entryY=0;entryDx=0;entryDy=0;" edge="1" parent="1" source="_DrJZsbk46onkXdGhjSs-20" target="_DrJZsbk46onkXdGhjSs-52">
          <mxGeometry relative="1" as="geometry" />
        </mxCell>
        <mxCell id="_DrJZsbk46onkXdGhjSs-20" value="Vérification de connexion" style="html=1;align=center;verticalAlign=top;rounded=1;absoluteArcSize=1;arcSize=10;dashed=0;" vertex="1" parent="1">
          <mxGeometry x="600" y="371" width="140" height="40" as="geometry" />
        </mxCell>
        <mxCell id="_DrJZsbk46onkXdGhjSs-21" style="edgeStyle=orthogonalEdgeStyle;rounded=0;orthogonalLoop=1;jettySize=auto;html=1;exitX=1;exitY=0.5;exitDx=0;exitDy=0;entryX=0;entryY=0.5;entryDx=0;entryDy=0;" edge="1" parent="1" source="_DrJZsbk46onkXdGhjSs-22" target="_DrJZsbk46onkXdGhjSs-24">
          <mxGeometry relative="1" as="geometry" />
        </mxCell>
        <mxCell id="_DrJZsbk46onkXdGhjSs-22" value="Récupération des &lt;br&gt;données" style="html=1;align=center;verticalAlign=top;rounded=1;absoluteArcSize=1;arcSize=10;dashed=0;" vertex="1" parent="1">
          <mxGeometry x="601" y="501" width="140" height="40" as="geometry" />
        </mxCell>
        <mxCell id="_DrJZsbk46onkXdGhjSs-23" style="edgeStyle=orthogonalEdgeStyle;rounded=0;orthogonalLoop=1;jettySize=auto;html=1;exitX=0.5;exitY=1;exitDx=0;exitDy=0;entryX=0.5;entryY=0;entryDx=0;entryDy=0;" edge="1" parent="1" source="_DrJZsbk46onkXdGhjSs-24" target="_DrJZsbk46onkXdGhjSs-26">
          <mxGeometry relative="1" as="geometry" />
        </mxCell>
        <mxCell id="_DrJZsbk46onkXdGhjSs-24" value="Sélection des utilisateurs" style="html=1;align=center;verticalAlign=top;rounded=1;absoluteArcSize=1;arcSize=10;dashed=0;" vertex="1" parent="1">
          <mxGeometry x="861" y="501" width="140" height="40" as="geometry" />
        </mxCell>
        <mxCell id="_DrJZsbk46onkXdGhjSs-60" style="edgeStyle=orthogonalEdgeStyle;rounded=0;orthogonalLoop=1;jettySize=auto;html=1;exitX=0.5;exitY=1;exitDx=0;exitDy=0;" edge="1" parent="1" source="_DrJZsbk46onkXdGhjSs-26" target="_DrJZsbk46onkXdGhjSs-30">
          <mxGeometry relative="1" as="geometry" />
        </mxCell>
        <mxCell id="_DrJZsbk46onkXdGhjSs-26" value="Affichage des données&amp;nbsp;" style="html=1;align=center;verticalAlign=top;rounded=1;absoluteArcSize=1;arcSize=10;dashed=0;" vertex="1" parent="1">
          <mxGeometry x="597.5" y="620" width="140" height="40" as="geometry" />
        </mxCell>
        <mxCell id="_DrJZsbk46onkXdGhjSs-29" style="edgeStyle=orthogonalEdgeStyle;rounded=0;orthogonalLoop=1;jettySize=auto;html=1;exitX=0.5;exitY=1;exitDx=0;exitDy=0;entryX=1;entryY=0.5;entryDx=0;entryDy=0;" edge="1" parent="1" source="_DrJZsbk46onkXdGhjSs-30" target="_DrJZsbk46onkXdGhjSs-9">
          <mxGeometry relative="1" as="geometry">
            <Array as="points">
              <mxPoint x="668" y="781" />
              <mxPoint x="1111" y="781" />
              <mxPoint x="1111" y="287" />
            </Array>
          </mxGeometry>
        </mxCell>
        <mxCell id="_DrJZsbk46onkXdGhjSs-30" value="Fin de l&#39;affichage" style="html=1;align=center;verticalAlign=top;rounded=1;absoluteArcSize=1;arcSize=10;dashed=0;" vertex="1" parent="1">
          <mxGeometry x="597.5" y="721" width="140" height="40" as="geometry" />
        </mxCell>
        <mxCell id="_DrJZsbk46onkXdGhjSs-36" style="edgeStyle=orthogonalEdgeStyle;rounded=0;orthogonalLoop=1;jettySize=auto;html=1;exitX=0.5;exitY=0;exitDx=0;exitDy=0;entryX=0.5;entryY=1;entryDx=0;entryDy=0;" edge="1" parent="1" source="_DrJZsbk46onkXdGhjSs-37" target="_DrJZsbk46onkXdGhjSs-38">
          <mxGeometry relative="1" as="geometry" />
        </mxCell>
        <mxCell id="_DrJZsbk46onkXdGhjSs-37" value="Quitter l&#39;application" style="html=1;align=center;verticalAlign=top;rounded=1;absoluteArcSize=1;arcSize=10;dashed=0;" vertex="1" parent="1">
          <mxGeometry x="51" y="291" width="140" height="40" as="geometry" />
        </mxCell>
        <mxCell id="_DrJZsbk46onkXdGhjSs-38" value="" style="ellipse;html=1;shape=endState;fillColor=#000000;strokeColor=#000000;" vertex="1" parent="1">
          <mxGeometry x="106" y="216" width="30" height="30" as="geometry" />
        </mxCell>
        <mxCell id="_DrJZsbk46onkXdGhjSs-39" value="Début" style="text;html=1;strokeColor=none;fillColor=none;align=center;verticalAlign=middle;whiteSpace=wrap;rounded=0;" vertex="1" parent="1">
          <mxGeometry x="376" y="76" width="40" height="20" as="geometry" />
        </mxCell>
        <mxCell id="_DrJZsbk46onkXdGhjSs-40" value="Fin" style="text;html=1;strokeColor=none;fillColor=none;align=center;verticalAlign=middle;whiteSpace=wrap;rounded=0;" vertex="1" parent="1">
          <mxGeometry x="141" y="221" width="40" height="20" as="geometry" />
        </mxCell>
        <mxCell id="_DrJZsbk46onkXdGhjSs-44" value="[Quitter l&#39;application]" style="text;html=1;strokeColor=none;fillColor=none;align=center;verticalAlign=middle;whiteSpace=wrap;rounded=0;" vertex="1" parent="1">
          <mxGeometry x="191" y="321" width="140" height="20" as="geometry" />
        </mxCell>
        <mxCell id="_DrJZsbk46onkXdGhjSs-45" value="[Renvoie des informations]" style="text;html=1;strokeColor=none;fillColor=none;align=center;verticalAlign=middle;whiteSpace=wrap;rounded=0;" vertex="1" parent="1">
          <mxGeometry x="770" y="590" width="140" height="20" as="geometry" />
        </mxCell>
        <mxCell id="_DrJZsbk46onkXdGhjSs-46" value="Supprimer un utilisateur" style="html=1;align=center;verticalAlign=top;rounded=1;absoluteArcSize=1;arcSize=10;dashed=0;" vertex="1" parent="1">
          <mxGeometry x="230" y="411" width="139" height="40" as="geometry" />
        </mxCell>
        <mxCell id="_DrJZsbk46onkXdGhjSs-48" value="Réinitialiser la base &lt;br&gt;de données" style="html=1;align=center;verticalAlign=top;rounded=1;absoluteArcSize=1;arcSize=10;dashed=0;" vertex="1" parent="1">
          <mxGeometry x="170" y="490" width="139" height="40" as="geometry" />
        </mxCell>
        <mxCell id="_DrJZsbk46onkXdGhjSs-54" style="edgeStyle=orthogonalEdgeStyle;rounded=0;orthogonalLoop=1;jettySize=auto;html=1;exitX=0.5;exitY=1;exitDx=0;exitDy=0;entryX=0.5;entryY=0;entryDx=0;entryDy=0;" edge="1" parent="1" source="_DrJZsbk46onkXdGhjSs-52" target="_DrJZsbk46onkXdGhjSs-22">
          <mxGeometry relative="1" as="geometry" />
        </mxCell>
        <mxCell id="_DrJZsbk46onkXdGhjSs-56" style="edgeStyle=orthogonalEdgeStyle;rounded=0;orthogonalLoop=1;jettySize=auto;html=1;exitX=1;exitY=0.5;exitDx=0;exitDy=0;entryX=1;entryY=0.5;entryDx=0;entryDy=0;" edge="1" parent="1" source="_DrJZsbk46onkXdGhjSs-52" target="_DrJZsbk46onkXdGhjSs-7">
          <mxGeometry relative="1" as="geometry">
            <Array as="points">
              <mxPoint x="840" y="455" />
              <mxPoint x="840" y="161" />
            </Array>
          </mxGeometry>
        </mxCell>
        <mxCell id="_DrJZsbk46onkXdGhjSs-52" value="" style="rhombus;" vertex="1" parent="1">
          <mxGeometry x="656" y="440" width="30" height="30" as="geometry" />
        </mxCell>
        <mxCell id="_DrJZsbk46onkXdGhjSs-58" value="[Administrateur non&amp;nbsp;&lt;br&gt;connecté]" style="text;html=1;strokeColor=none;fillColor=none;align=center;verticalAlign=middle;whiteSpace=wrap;rounded=0;" vertex="1" parent="1">
          <mxGeometry x="600" y="170" width="140" height="20" as="geometry" />
        </mxCell>
        <mxCell id="_DrJZsbk46onkXdGhjSs-59" value="[Administrateur&amp;nbsp;&lt;br&gt;connecté]" style="text;html=1;strokeColor=none;fillColor=none;align=center;verticalAlign=middle;whiteSpace=wrap;rounded=0;" vertex="1" parent="1">
          <mxGeometry x="556" y="470" width="140" height="20" as="geometry" />
        </mxCell>
      </root>
    </mxGraphModel>
  </diagram>
</mxfile>
